<svg
  width="34"
  height="44"
  viewBox="0 0 24 24"
  fill="none"
  xmlns="http://www.w3.org/2000/svg"
>
  <path
    d="M6.34315 5.65685C6.73367 5.26634 7.36785 5.26634 7.75837 5.65685L12 9.89851L16.2416 5.65685C16.6321 5.26634 17.2663 5.26634 17.6569 5.65685C18.0474 6.04737 18.0474 6.68155 17.6569 7.07206L13.4153 11.3137L17.6569 15.5554C18.0474 15.9459 18.0474 16.5801 17.6569 16.9706C17.2663 17.3611 16.6321 17.3611 16.2416 16.9706L12 12.7299L7.75837 16.9706C7.36785 17.3611 6.73367 17.3611 6.34315 16.9706C5.95264 16.5801 5.95264 15.9459 6.34315 15.5554L10.5847 11.3137L6.34315 7.07206C5.95264 6.68155 5.95264 6.04737 6.34315 5.65685Z"
    fill="black"
  />
</svg>